<?xml version="1.0" standalone="no"?><!DOCTYPE svg PUBLIC "-//W3C//DTD SVG 1.1//EN" "http://www.w3.org/Graphics/SVG/1.1/DTD/svg11.dtd"><svg t="1713755273493" class="icon" viewBox="0 0 1024 1024" version="1.1" xmlns="http://www.w3.org/2000/svg" p-id="3150" xmlns:xlink="http://www.w3.org/1999/xlink" width="64" height="64"><path d="M480.512 120.064a349.952 349.952 0 0 1 344.576 354.304 349.952 349.952 0 0 1-344.576 354.56A349.952 349.952 0 0 1 135.936 474.368 349.952 349.952 0 0 1 480.512 120.064m0-102.4A452.096 452.096 0 0 0 33.536 474.368a452.096 452.096 0 0 0 446.976 456.96 452.096 452.096 0 0 0 446.976-456.96A452.096 452.096 0 0 0 480.512 17.664z" p-id="3151"></path><path d="M992.768 974.08l-2.304 2.56a48.64 48.64 0 0 1-68.864-1.792l-150.016-153.6a51.2 51.2 0 0 1-1.536-70.912l2.304-2.56a48.896 48.896 0 0 1 69.632 1.792l149.76 153.6a51.2 51.2 0 0 1 1.024 70.912z" p-id="3152"></path></svg>