<svg t="1713931107517" class="icon" viewBox="0 0 1024 1024" version="1.1" xmlns="http://www.w3.org/2000/svg" p-id="5640" width="64" height="64"><path d="M641.28 99.555556c27.534222 0 53.930667 11.022222 73.287111 30.592l180.067556 182.044444a103.111111 103.111111 0 0 1 29.866666 72.533333v475.349334a64.440889 64.440889 0 0 1-64.440889 64.440889H163.996444A64.440889 64.440889 0 0 1 99.555556 860.074667V164.081778a64.440889 64.440889 0 0 1 64.440888-64.440889L641.28 99.555556z m55.466667 446.819555H327.253333a21.475556 21.475556 0 0 0-21.475555 21.489778v356.593778h68.707555V615.096889h274.958223v309.361778h68.736V567.950222c0-10.894222-8.149333-20.053333-18.972445-21.333333l-2.460444-0.241778zM378.752 286.435556h-120.305778a4.266667 4.266667 0 0 0-4.266666 4.266666v55.850667a4.266667 4.266667 0 0 0 4.266666 4.266667h120.305778a4.266667 4.266667 0 0 0 4.266667-4.266667V290.702222a4.266667 4.266667 0 0 0-4.266667-4.266666z" p-id="5641"></path></svg>