<svg t="1713931059205" class="icon" viewBox="0 0 1024 1024" version="1.1" xmlns="http://www.w3.org/2000/svg" p-id="5308" width="64" height="64"><path d="M913.678222 925.454222L724.167111 735.943111a367.957333 367.957333 0 0 1-96.711111 59.889778A367.587556 367.587556 0 0 1 483.555556 824.888889a368.583111 368.583111 0 0 1-261.475556-108.302222A368.568889 368.568889 0 0 1 113.777778 455.111111a368.583111 368.583111 0 0 1 108.302222-261.475555A368.583111 368.583111 0 0 1 483.555556 85.333333a368.725333 368.725333 0 0 1 261.475555 108.302223A368.583111 368.583111 0 0 1 853.333333 455.111111a367.573333 367.573333 0 0 1-29.056 143.928889 367.971556 367.971556 0 0 1-59.875555 96.711111L953.884444 885.262222a28.444444 28.444444 0 1 1-40.220444 40.192zM170.666667 455.125333c0.199111 172.714667 140.174222 312.675556 312.888889 312.888889 172.728889-0.213333 312.689778-140.174222 312.888888-312.888889-0.199111-172.728889-140.16-312.704-312.888888-312.888889-172.714667 0.184889-312.689778 140.16-312.888889 312.888889z m284.444444 128v-99.555555h-99.555555a28.444444 28.444444 0 1 1 0-56.888889h99.555555v-99.555556a28.444444 28.444444 0 1 1 56.888889 0v99.555556h99.555556a28.444444 28.444444 0 1 1 0 56.888889h-99.555556v99.555555a28.444444 28.444444 0 1 1-56.888889 0z" p-id="5309"></path></svg>